<svg xmlns="http://www.w3.org/2000/svg" width="134.301" height="140.142" viewBox="0 0 134.301 140.142">
  <g id="social_network_if0i425mhywz" transform="translate(-10.67)">
    <g id="Group_8" data-name="Group 8" transform="translate(10.67)">
      <path id="Path_24" data-name="Path 24" d="M144.971,23.351a23.355,23.355,0,1,0-44.941,8.943L72.775,47.823a35.041,35.041,0,1,0,.419,43.964l16.685,13.029A23.359,23.359,0,1,0,115.71,94.149l5.928-47.437A23.357,23.357,0,0,0,144.971,23.351ZM121.616,5.833A17.511,17.511,0,0,1,135.93,33.441a20.906,20.906,0,0,1-3.292-1.292c-2.968-1.134-3.741-1.946-3.94-2.331a.379.379,0,0,0-.016-.043v-.068a12.824,12.824,0,0,0,2.7-7.5c0-6.347-4.374-10.533-9.768-10.533s-9.768,4.186-9.768,10.533a12.82,12.82,0,0,0,2.7,7.5v.068a.21.21,0,0,1-.016.043c-.2.385-.971,1.2-3.94,2.331a20.8,20.8,0,0,1-3.293,1.292A17.511,17.511,0,0,1,121.616,5.833Zm3.931,16.376a7.226,7.226,0,0,1-1.663,4.17,8.027,8.027,0,0,1-2.268,2.053,7.948,7.948,0,0,1-2.263-2.053,7.2,7.2,0,0,1-1.669-4.17c0-2.853,1.545-4.691,3.931-4.691S125.547,19.356,125.547,22.209ZM45.706,99.264a28.994,28.994,0,0,1-19.737-7.68A25.929,25.929,0,0,0,30.6,89.828c.291-.137.543-.255.71-.325,5.029-1.916,7.719-3.789,8.994-6.253.082-.153.141-.29.184-.386l.406-.9a9.632,9.632,0,0,0,4.812,1.624,9.627,9.627,0,0,0,4.807-1.624l.415.907c.043.094.1.223.176.376,1.275,2.463,3.969,4.337,9,6.253.166.07.42.188.71.325a25.671,25.671,0,0,0,4.632,1.755A29.008,29.008,0,0,1,45.706,99.264ZM36.943,65.376a10.381,10.381,0,0,1,2.647-7.382,8.67,8.67,0,0,1,12.228,0,10.382,10.382,0,0,1,2.647,7.382,13.888,13.888,0,0,1-3.631,8.665c-2.327,2.708-4.551,3.658-5.128,3.709-.581-.051-2.806-1-5.128-3.709A13.9,13.9,0,0,1,36.943,65.376ZM69.379,87.161a6.406,6.406,0,0,0-2-1.106L67.189,86a29.4,29.4,0,0,1-5.013-1.959c-4.434-1.685-5.59-2.906-5.885-3.481a.4.4,0,0,0-.029-.059l-.026-3.883a19.181,19.181,0,0,0,4.071-11.247c0-9.486-6.538-15.748-14.6-15.748S31.1,55.889,31.1,65.375a19.178,19.178,0,0,0,4.067,11.247l-.025,3.883a.4.4,0,0,1-.03.059c-.3.574-1.45,1.8-5.885,3.481A29.26,29.26,0,0,1,24.219,86l-.192.051a6.409,6.409,0,0,0-2,1.106,29.2,29.2,0,1,1,47.349,0ZM109.935,134.3a17.428,17.428,0,0,1-9.674-2.925c.148-.062.284-.129.4-.188s.279-.129.335-.155c3.113-1.189,5.088-2.413,6.307-3.958a4.985,4.985,0,0,0,5.265,0c1.218,1.546,3.191,2.769,6.309,3.958.051.027.214.1.33.155s.255.126.405.188A17.417,17.417,0,0,1,109.935,134.3Zm-3.926-18.664c0-2.85,1.541-4.7,3.926-4.7s3.931,1.846,3.931,4.7a7.213,7.213,0,0,1-1.664,4.173,7.969,7.969,0,0,1-2.268,2.053,8.123,8.123,0,0,1-2.263-2.053A7.235,7.235,0,0,1,106.009,115.636Zm21.444,1.146a17.4,17.4,0,0,1-3.2,10.085,20.116,20.116,0,0,1-3.3-1.291c-2.971-1.13-3.738-1.943-3.94-2.327-.005-.019-.008-.035-.019-.043v-.07a12.826,12.826,0,0,0,2.705-7.5c0-6.347-4.371-10.53-9.771-10.53s-9.768,4.184-9.768,10.53a12.833,12.833,0,0,0,2.708,7.5v.07a.156.156,0,0,0-.021.043c-.2.384-.966,1.2-3.94,2.327a19.783,19.783,0,0,1-3.293,1.291,17.515,17.515,0,1,1,31.832-10.085Zm-17.537-23.36a23.3,23.3,0,0,0-16.445,6.792l-17.036-13.3a35.069,35.069,0,0,0-.325-34.263l26.815-15.286a23.393,23.393,0,0,0,12.915,8.63Zm2.026-55.468c.145-.07.279-.137.4-.2s.276-.129.327-.154c3.119-1.185,5.1-2.413,6.315-3.961a4.971,4.971,0,0,0,5.265,0c1.213,1.548,3.191,2.776,6.309,3.961.051.025.209.1.327.154s.258.128.4.2a17.508,17.508,0,0,1-19.348,0Z" transform="translate(-10.67)" fill="#fff"/>
    </g>
  </g>
</svg>
