<svg xmlns="http://www.w3.org/2000/svg" width="140.713" height="105.222" viewBox="0 0 140.713 105.222">
  <g id="graduation_hat_8l8caoonhcyf" transform="translate(0 -2.17)">
    <g id="Group_7" data-name="Group 7" transform="translate(0 2.17)">
      <path id="Path_22" data-name="Path 22" d="M97.365,7.781l-45.613,27.2L7.015,7.781,3.295,31.008a.775.775,0,0,1,.09-.106,5.377,5.377,0,0,0-.834,2.755c0,8.2,36.12,33.472,47.591,33.472s51.7-25.271,51.7-33.472a37,37,0,0,0-.752-4.349Z" transform="translate(18.305 38.093)" fill="#fff"/>
      <path id="Path_23" data-name="Path 23" d="M140.713,24.269,70.6,2.17,7.971,22.143a6.785,6.785,0,0,0-2.379.76h0A2.559,2.559,0,0,0,4.2,25.078C3.867,29.134,0,75.752,0,75.752L4.2,89.716,8.1,75.752,6.451,27.711,70.41,67.061Zm-75.184,2H6.4L12.582,22.9h52.2a4.737,4.737,0,0,1,4.145-2.019c2.485,0,4.5,1.48,4.5,3.295s-2.011,3.3-4.5,3.3A5.012,5.012,0,0,1,65.529,26.272Z" transform="translate(0 -2.17)" fill="#fff"/>
    </g>
  </g>
</svg>
