<svg xmlns="http://www.w3.org/2000/svg" width="140" height="111.901" viewBox="0 0 140 111.901">
  <g id="Group_31" data-name="Group 31" transform="translate(-1063.998 -477.999)">
    <g id="Ellipse_9" data-name="Ellipse 9" transform="translate(1135 531)" fill="none" stroke="#f7a62f" stroke-width="6.5">
      <circle cx="11" cy="11" r="11" stroke="none"/>
      <circle cx="11" cy="11" r="7.75" fill="none"/>
    </g>
    <g id="Ellipse_10" data-name="Ellipse 10" transform="translate(1173 543)" fill="none" stroke="#fff" stroke-width="6.5">
      <circle cx="11" cy="11" r="11" stroke="none"/>
      <circle cx="11" cy="11" r="7.75" fill="none"/>
    </g>
    <g id="Ellipse_11" data-name="Ellipse 11" transform="translate(1097 543)" fill="none" stroke="#2cb8c4" stroke-width="6.5">
      <circle cx="11" cy="11" r="11" stroke="none"/>
      <circle cx="11" cy="11" r="7.75" fill="none"/>
    </g>
    <path id="Exclusion_2" data-name="Exclusion 2" d="M-19578.5,2583a21.36,21.36,0,0,1-8.369-1.69,21.41,21.41,0,0,1-6.834-4.608,21.434,21.434,0,0,1-4.607-6.834,21.379,21.379,0,0,1-1.689-8.369,21.379,21.379,0,0,1,1.689-8.369,21.425,21.425,0,0,1,4.607-6.834,21.411,21.411,0,0,1,6.834-4.608,21.367,21.367,0,0,1,8.369-1.69,21.367,21.367,0,0,1,8.369,1.69,21.411,21.411,0,0,1,6.834,4.608,21.425,21.425,0,0,1,4.607,6.834,21.379,21.379,0,0,1,1.689,8.369,21.379,21.379,0,0,1-1.689,8.369,21.434,21.434,0,0,1-4.607,6.834,21.41,21.41,0,0,1-6.834,4.608A21.36,21.36,0,0,1-19578.5,2583Zm-14.934-12.568.064.019c1.85.538,6.611,1.9,10.875,2.927,4.3,1.038,8.2,1.761,9.678,2.023l.072.013v0l0-.02,0-.021c.117-.9.5-4.094.586-7.445,4.1.918,7.385,1.487,7.4,1.49v0l0-.02a74.175,74.175,0,0,0,.605-8.765,73.593,73.593,0,0,0-.605-8.7l0-.03c-.031-.012-4.68-1.615-9.75-2.833-4.734-1.147-9.891-1.962-10.463-2.051a.153.153,0,0,0-.039,0c0,.009-.3,3.263-.428,7.393-3.131-.666-6.053-1.158-7.516-1.392a.329.329,0,0,0-.055-.005c0,.037-.332,3.547-.447,7.92-.1,3.957-.018,8.54,0,9.418l0,.016v.079Zm21.281-2.508h0c-.863-.193-1.652-.375-2.344-.542-2.988-.723-6.811-1.753-10.764-2.9l-.176-.051v-.007h0a.7.7,0,0,1,0-.072c-.023-1.275-.092-5.726.006-9.435,0-.12,0-.3.01-.521,1.043.219,2.029.44,2.932.659,4.988,1.207,9.725,2.832,9.75,2.843a71.749,71.749,0,0,1,.609,8.726c0,.409,0,.831-.016,1.3Z" transform="translate(20664 -2062)" fill="#fff"/>
    <path id="Subtraction_6" data-name="Subtraction 6" d="M-19591.365,2554h-6.531c.176-.5.373-1,.586-1.481a20.484,20.484,0,0,1,4.605-6.518,21.563,21.563,0,0,1,6.836-4.393,22.261,22.261,0,0,1,8.367-1.614,22.217,22.217,0,0,1,8.367,1.614,22.029,22.029,0,0,1,3.133,1.564v7.6c-.129-.133-.285-.287-.541-.531a15.94,15.94,0,0,0-10.959-4.25,15.947,15.947,0,0,0-10.959,4.25,14.619,14.619,0,0,0-2.9,3.753Z" transform="translate(20686 -1967.002)" fill="#fff"/>
    <path id="Subtraction_10" data-name="Subtraction 10" d="M-19592.922,2559h-6.023a19.607,19.607,0,0,1,1.635-6.478,20.354,20.354,0,0,1,4.609-6.518,21.472,21.472,0,0,1,6.832-4.393,22.217,22.217,0,0,1,8.367-1.614,22.232,22.232,0,0,1,8.373,1.614,21.486,21.486,0,0,1,6.832,4.393,20.5,20.5,0,0,1,4.609,6.518,19.55,19.55,0,0,1,1.631,6.477h-6.027a13.668,13.668,0,0,0-1.406-4.721,14.55,14.55,0,0,0-3.047-4.03,15.968,15.968,0,0,0-10.965-4.25,15.961,15.961,0,0,0-10.959,4.25,14.6,14.6,0,0,0-3.049,4.03,13.7,13.7,0,0,0-1.41,4.721Z" transform="translate(20724 -1979.001)" fill="#fff"/>
    <path id="Path_36" data-name="Path 36" d="M-.018.07,6,0V10H0L-.082,1.32Z" transform="translate(1125.08 579.9)" fill="#fff"/>
    <path id="Path_37" data-name="Path 37" d="M5.936.07-.082,0V10h6L6,1.32Z" transform="translate(1162.002 579.9)" fill="#fff"/>
    <path id="Subtraction_13" data-name="Subtraction 13" d="M6.531,0H0C.176.5.373,1,.586,1.481A20.484,20.484,0,0,0,5.191,8a21.563,21.563,0,0,0,6.836,4.393A22.261,22.261,0,0,0,20.395,14a22.217,22.217,0,0,0,8.367-1.614,22.029,22.029,0,0,0,3.133-1.564v-7.6c-.129.133-.285.287-.541.531A15.94,15.94,0,0,1,20.395,8,15.947,15.947,0,0,1,9.436,3.753,14.619,14.619,0,0,1,6.531,0Z" transform="translate(1203.998 587.001) rotate(180)" fill="#fff"/>
  </g>
</svg>
