<!-- icon666.com - MILLIONS vector ICONS FREE --><svg viewBox="-29 0 512 512" xmlns="http://www.w3.org/2000/svg"><path d="m314.339844 9.90625h-39.292969c-3.148437-5.886719-9.355469-9.90625-16.484375-9.90625h-31.617188c-7.128906 0-13.332031 4.019531-16.480468 9.90625h-191.78125c-10.300782 0-18.683594 8.378906-18.683594 18.683594v105.148437c0 4.144531 3.355469 7.5 7.5 7.5s7.5-3.355469 7.5-7.5v-105.148437c0-2.03125 1.652344-3.683594 3.683594-3.683594h23.246094v462.1875h-23.246094c-2.03125 0-3.683594-1.652344-3.683594-3.683594v-315.148437c0-4.144531-3.355469-7.5-7.5-7.5s-7.5 3.355469-7.5 7.5v315.148437c0 10.300782 8.382812 18.683594 18.683594 18.683594h109.039062c4.144532 0 7.5-3.359375 7.5-7.5s-3.355468-7.5-7.5-7.5h-70.792968v-462.1875h151.332031v462.1875h-46.078125c-4.144532 0-7.5 3.359375-7.5 7.5s3.355468 7.5 7.5 7.5h48.28125c3.144531 5.886719 9.351562 9.90625 16.480468 9.90625h31.617188c7.128906 0 13.335938-4.019531 16.484375-9.90625h39.296875c21.78125 0 39.503906-17.722656 39.503906-39.503906v-85.328125c0-4.144531-3.359375-7.5-7.5-7.5-4.144531 0-7.5 3.355469-7.5 7.5v85.328125c0 13.511718-10.992187 24.503906-24.503906 24.503906h-37.097656v-462.1875h37.097656c13.511719 0 24.503906 10.992188 24.503906 24.503906v293.328125c0 4.144531 3.355469 7.5 7.5 7.5 4.140625 0 7.5-3.355469 7.5-7.5v-293.328125c0-21.78125-17.722656-39.503906-39.507812-39.503906zm-91.078125 483.410156v-474.632812c0-2.03125 1.652343-3.683594 3.683593-3.683594h8.308594v479.59375c0 .84375.144532 1.648438.402344 2.40625h-8.707031c-2.035157 0-3.6875-1.652344-3.6875-3.683594zm38.984375 0c0 2.03125-1.652344 3.683594-3.683594 3.683594h-8.710938c.257813-.757812.402344-1.5625.402344-2.40625v-479.59375h8.308594c2.03125 0 3.683594 1.652344 3.683594 3.683594zm0 0"></path><path d="m435.222656 36.625h-25.097656c-10.300781 0-18.683594 8.378906-18.683594 18.683594v364.070312c0 5.078125 1.132813 10.199219 3.273438 14.804688l15.425781 33.199218c2.292969 4.929688 7.09375 7.996094 12.53125 7.996094 5.441406 0 10.242187-3.066406 12.535156-7.996094l15.429688-33.199218s0 0 0-.003906c2.140625-4.605469 3.269531-9.726563 3.269531-14.800782v-364.070312c0-10.304688-8.378906-18.683594-18.683594-18.683594zm-28.78125 375.253906v-186.734375h32.464844v186.734375zm32.464844-201.734375h-32.464844v-86.199219h32.464844zm-28.78125-158.519531h25.097656c2.03125 0 3.683594 1.652344 3.683594 3.683594v53.636718h-32.464844v-53.636718c0-2.03125 1.652344-3.683594 3.683594-3.683594zm12.550781 407.132812-14.359375-30.898437c-.148437-.324219-.289062-.652344-.421875-.980469h29.5625c-.132812.332032-.273437.65625-.425781.980469zm0 0"></path></svg>