<!-- icon666.com - MILLIONS vector ICONS FREE --><svg id="Layer_1" viewBox="0 0 512 512" xmlns="http://www.w3.org/2000/svg" data-name="Layer 1"><path d="m467.631 118.381a8 8 0 0 0 -7.255-4.628h-121.363v-73.538a16.676 16.676 0 0 0 -16.658-16.657h-221.408v-6.9a16.676 16.676 0 0 0 -16.657-16.658h-24.009a16.676 16.676 0 0 0 -16.657 16.657v478.686a16.676 16.676 0 0 0 16.657 16.657h24.009a16.676 16.676 0 0 0 16.657-16.657v-258.08h92.7v73.537a16.677 16.677 0 0 0 16.657 16.657h250.07a8 8 0 0 0 6.115-13.158l-79.029-93.7 79.029-93.694a8 8 0 0 0 1.142-8.524zm-382.684 376.962a.674.674 0 0 1 -.657.657h-24.009a.674.674 0 0 1 -.657-.657v-478.686a.674.674 0 0 1 .657-.657h24.009a.674.674 0 0 1 .657.657zm16-455.785h221.408a.674.674 0 0 1 .658.657v180.39a.675.675 0 0 1 -.658.658h-221.408zm269.934 175.889a8 8 0 0 0 0 10.317l72.282 85.694h-232.857a.674.674 0 0 1 -.657-.657v-73.538h112.706a16.677 16.677 0 0 0 16.658-16.658v-90.852h104.15z" fill="rgb(0,0,0)"></path></svg>