<svg xmlns="http://www.w3.org/2000/svg" width="143.977" height="108.222" viewBox="0 0 143.977 108.222">
  <g id="world_grid_and_a_browser_window_inside_a_circle_iynz6wqdjqf8" transform="translate(-3 -12.138)">
    <g id="Group_9" data-name="Group 9" transform="translate(3 12.138)">
      <path id="Path_25" data-name="Path 25" d="M100.75,23.7H31.785a5.319,5.319,0,0,0-5.314,5.314V68.755a5.319,5.319,0,0,0,5.314,5.314H100.75a5.319,5.319,0,0,0,5.314-5.314V29.014A5.319,5.319,0,0,0,100.75,23.7Zm.92,45.057a.923.923,0,0,1-.92.92H31.785a.922.922,0,0,1-.92-.92V29.014a.922.922,0,0,1,.92-.92H100.75a.922.922,0,0,1,.92.92Z" transform="translate(31.676 10.484)" fill="#fff"/>
      <path id="Path_26" data-name="Path 26" d="M78.609,20.064H49.776a2.2,2.2,0,0,0,0,4.393H78.609a2.2,2.2,0,1,0,0-4.393Z" transform="translate(56.935 6.133)" fill="#fff"/>
      <path id="Path_27" data-name="Path 27" d="M34.877,24.457h4.87a2.2,2.2,0,0,0,0-4.393h-4.87a2.2,2.2,0,0,0,0,4.393Z" transform="translate(39.106 6.133)" fill="#fff"/>
      <path id="Path_28" data-name="Path 28" d="M29.2,24.457h4.87a2.2,2.2,0,0,0,0-4.393H29.2a2.2,2.2,0,0,0,0,4.393Z" transform="translate(32.313 6.133)" fill="#fff"/>
      <path id="Path_29" data-name="Path 29" d="M138.661,26.348H94.486A53.806,53.806,0,0,0,68.021,9.95h-.007c-.031-.009-.062-.013-.092-.022h0a54.166,54.166,0,0,0-27.713.024H40.2a54.115,54.115,0,0,0,0,104.593h.011s.009,0,.013,0a.033.033,0,0,1,.02,0,54.154,54.154,0,0,0,27.735,0c.007,0,.013,0,.02,0s.009,0,.013,0h.011a53.781,53.781,0,0,0,26.467-16.4h44.172a5.317,5.317,0,0,0,5.314-5.311V31.66A5.321,5.321,0,0,0,138.661,26.348ZM76.118,98.15h12.27a49.359,49.359,0,0,1-16.308,10.421A70.807,70.807,0,0,0,76.118,98.15ZM66.064,110.493a50.108,50.108,0,0,1-9.757,1.4V98.055a5.293,5.293,0,0,0,.92.094H71.542A58.5,58.5,0,0,1,66.064,110.493Zm-23.891,0c-3.842-6.247-6.889-15.216-8.7-25.564a132.747,132.747,0,0,1,18.436-1.535v28.5A49.6,49.6,0,0,1,42.173,110.493ZM10.755,86.536a49.542,49.542,0,0,1-6.278-21.8h22.74a138.451,138.451,0,0,0,1.256,16.587A90.741,90.741,0,0,0,10.755,86.536Zm0-48.576a90.868,90.868,0,0,0,17.716,5.213A139.1,139.1,0,0,0,27.2,60.343H4.457A49.53,49.53,0,0,1,10.755,37.96ZM42.173,14a49.787,49.787,0,0,1,9.74-1.4V41.1a132.41,132.41,0,0,1-18.436-1.535C35.285,29.219,38.331,20.248,42.173,14ZM32.807,43.906a136.972,136.972,0,0,0,19.106,1.588V60.343H31.6A134.213,134.213,0,0,1,32.807,43.906Zm0,36.684a134.176,134.176,0,0,1-1.195-15.853h20.3V79A136.949,136.949,0,0,0,32.807,80.59Zm23.5-67.99a49.78,49.78,0,0,1,9.757,1.406,58.237,58.237,0,0,1,5.478,12.343H57.227a5.292,5.292,0,0,0-.92.092ZM76.118,26.348a71.335,71.335,0,0,0-4.035-10.423A49.318,49.318,0,0,1,88.391,26.348ZM36.135,15.912a87.9,87.9,0,0,0-6.988,22.918,87.46,87.46,0,0,1-16.018-4.637A49.413,49.413,0,0,1,36.135,15.912ZM13.129,90.3a87.632,87.632,0,0,1,16.018-4.637,87.841,87.841,0,0,0,6.988,22.918A49.44,49.44,0,0,1,13.129,90.3Zm126.452,2.531a.923.923,0,0,1-.92.923H57.227a.922.922,0,0,1-.92-.923V31.662a.922.922,0,0,1,.92-.92h81.434a.922.922,0,0,1,.92.92Z" transform="translate(0 -8.138)" fill="#fff"/>
    </g>
  </g>
</svg>
