<!-- icon666.com - MILLIONS vector ICONS FREE --><svg viewBox="0 0 512 512" xmlns="http://www.w3.org/2000/svg"><path d="m512 310.976562v-109.953124l-43.074219-7.984376c-4.410156-14.949218-10.390625-29.375-17.847656-43.074218l24.816406-36.109375-77.75-77.746094-36.109375 24.816406c-13.699218-7.460937-28.125-13.441406-43.074218-17.851562l-7.984376-43.074219h-109.953124l-7.984376 43.074219c-14.949218 4.410156-29.375 10.390625-43.074218 17.847656l-36.109375-24.816406-77.746094 77.75 24.816406 36.109375c-7.460937 13.695312-13.441406 28.125-17.851562 43.074218l-43.074219 7.984376v109.953124l43.074219 7.984376c4.410156 14.949218 10.390625 29.378906 17.847656 43.074218l-24.816406 36.113282 77.75 77.746093 36.109375-24.816406c13.699218 7.460937 28.125 13.4375 43.074218 17.851563l7.984376 43.070312h109.953124l7.984376-43.074219c14.949218-4.410156 29.375-10.390625 43.074218-17.847656l36.109375 24.816406 77.746094-77.75-24.816406-36.109375c7.460937-13.695312 13.441406-28.125 17.851562-43.074218zm-67.3125-18.035156-2.324219 9.382813c-4.597656 18.566406-11.945312 36.292969-21.832031 52.6875l-4.996094 8.277343 21.503906 31.285157-42.464843 42.464843-31.285157-21.5-8.277343 4.992188c-16.394531 9.886719-34.121094 17.234375-52.6875 21.832031l-9.382813 2.324219-6.914062 37.3125h-60.054688l-6.914062-37.3125-9.382813-2.324219c-18.566406-4.597656-36.292969-11.945312-52.6875-21.832031l-8.277343-4.992188-31.285157 21.5-42.464843-42.464843 21.5-31.285157-4.992188-8.277343c-9.890625-16.394531-17.234375-34.121094-21.832031-52.6875l-2.324219-9.378907-37.3125-6.917968v-60.050782l37.3125-6.917968 2.324219-9.378906c4.597656-18.570313 11.945312-36.296876 21.832031-52.691407l4.996094-8.273437-21.5-31.289063 42.460937-42.460937 31.285157 21.5 8.277343-4.992188c16.394531-9.890625 34.121094-17.234375 52.6875-21.832031l9.382813-2.324219 6.914062-37.316406h60.054688l6.914062 37.3125 9.382813 2.324219c18.566406 4.597656 36.292969 11.945312 52.6875 21.832031l8.277343 4.992188 31.285157-21.5 42.464843 42.464843-21.5 31.285157 4.992188 8.277343c9.890625 16.394531 17.234375 34.121094 21.832031 52.6875l2.324219 9.382813 37.3125 6.914062v60.050782zm0 0"></path><path d="m256 154.652344c-55.882812 0-101.347656 45.464844-101.347656 101.347656s45.464844 101.347656 101.347656 101.347656 101.347656-45.464844 101.347656-101.347656-45.464844-101.347656-101.347656-101.347656zm0 172.695312c-39.339844 0-71.347656-32.007812-71.347656-71.347656s32.007812-71.347656 71.347656-71.347656 71.347656 32.007812 71.347656 71.347656-32.007812 71.347656-71.347656 71.347656zm0 0"></path></svg>